<?xml version="1.0" encoding="UTF-8"?>
<svg id="Layer_2" data-name="Layer 2" xmlns="http://www.w3.org/2000/svg" viewBox="0 0 522.71 86.67">
  <defs>
    <style>
      .cls-1 {
        fill: #231f20;
      }
    </style>
  </defs>
  <g id="Layer_1-2" data-name="Layer 1">
    <g>
      <path class="cls-1" d="m30.4,58.18c-.28-.04-.5-.14-.67-.42-6.63-8.97-13.27-17.5-19.94-25.46-2.93-.26-5.86-.54-8.79-.82C.39,31.43,0,31.16,0,30.83v-6.92C0,23.24.34,22.86.9,22.89c14.39.81,28.8,1.5,43.22,2.07.39.02.78.36.78.69-.02,2.8-.03,5.6-.05,8.41,0,.46-.23.98-.51.96-1.8-.12-3.59-.25-5.39-.37,2.27,3.05,4.53,6.15,6.8,9.3,2.26-2.74,4.53-5.54,6.8-8.39-1.67-.1-3.33-.21-5-.32-.28-.02-.5-.36-.5-.7.02-3,.04-5.99.06-8.99,0-.33.45-.45.62-.44,9.65.37,19.3.69,28.96.95.39.01.62.3.62.58-.02,3.16-.04,6.31-.06,9.46,0,.43-.12.78-.4.76-3.15-.15-6.3-.3-9.45-.47-6.77,8.26-13.53,16.12-20.28,23.46-.28.3-.62.65-.85.62-5.29-.71-10.58-1.48-15.86-2.3Zm83.2,12.82c.45.01.73.47.73.85,0,3.31-.02,6.61-.03,9.92,0,.6-.28.74-.74.73-14.47-.5-28.94-1.4-43.36-2.7-.34-.03-.56-.69-.56-1.05.02-3.07.04-6.14.05-9.22,0-.43.4-.69.68-.67,3.32.24,6.65.46,9.98.67.03-5.47.06-10.94.09-16.41-3.21-.12-6.42-.26-9.63-.4-.62-.03-1.01-.26-1.01-.76.02-2.98.04-5.95.05-8.93,0-.86.34-1.35.91-1.33,10.86.28,21.73.5,32.6.65.45,0,.73.38.73.75-.03,9.2-.06,18.4-.1,27.6,3.2.12,6.4.22,9.6.31Zm-12.42-44.84c.62,0,1.07.3,1.06,1.12-.01,3.43-.02,6.85-.04,10.28,0,.45-.23.96-.79.96-6.01-.07-12.01-.15-18.01-.25-.45,0-.73-.08-.73-.59.02-3.62.04-7.24.06-10.86,0-.29.28-.66.79-.66,5.89,0,11.77,0,17.66,0Zm253.84,10.95c-.04-.33-.07-.67-.11-1-.2-2.09-1.34-3.86-3.13-5.33-6.1-5-19.81-6.43-29.79-4.74-3.75.61-7.49,1.25-11.23,1.93-2.39.25-19.45,4.31-25.68,12.56-2.73.42-5.45.83-8.18,1.23,0-3.65-.02-7.3-.03-10.94-.01-5.94-5.63-10.98-14.45-10.63-4.53.21-9.06.42-13.59.61-9.44.35-13.23,5.82-14.17,7.51-.06,0-.11,0-.17,0-.01-2.09-.03-4.19-.04-6.28,0-.34-.29-.66-.74-.65-10.83.39-35.48.74-46.33,1-.56.01-.9.53-.89,1.39.02,3.01.03,6.02.05,9.03,0,.51.45.71,1.07.68,3.08-.13,19.97-.28,23.04-.43.03,5.33.06,10.66.1,15.99-3.17.24-6.35.46-9.52.67-.28.02-.73.34-.73.77.02,3.13.03,6.26.05,9.39,0,.51.23.99.57.97,13.7-1.13,27.38-2.62,41.01-4.48.45-.06.73-.23.73-.76-.02-2.93-.04-5.86-.05-8.79,0-.33-.29-.7-.73-.65-2.51.27-5.02.53-7.52.79,0-.65,0-1.31-.01-1.96-.04-5.61-.08-12.92,9.52-13.54,9.04-.63,9.72,1.21,9.77,10.1,0,1.09.01,2.18.02,3.26-2.71.33-5.42.64-8.13.95-.45.05-.73.41-.72.87.02,2.76.03,5.52.05,8.28,0,.65.23,1.02.9.92,12.47-1.76,24.9-3.85,37.28-6.22,3.85,13.18,28.55,8.6,39.38,6.99,2.06-.35,4.11-.69,6.17-1.01,20.98-3.18,24.88-11.79,26.02-15,.04-.17-.13-.67-.65-.61-4.52.49-9.03,1.03-13.53,1.62-.17.02-.39.16-.6.36-2.39,3.1-6.53,4.24-11.55,5.02-1.88.29-3.76.6-5.64.91-5.24.86-11.17.6-12.79-3.2l36.3-6.12,8.67-1.46Zm96.77,4.43c-2.21-.21-4.42-.41-6.63-.59-.7-.06-.93.66-1.09,1.21-1.36,3.73-3.37,5.87-6.93,5.62-3.27-.23-4.52-3.39-4.42-5.03.16-2.66.33-5.31.49-7.97,3.8.23,7.6.5,11.4.81.71.06,1.34-.45,1.37-.85.17-2.05.34-4.11.52-6.16.08-.95-.92-1.15-1.7-1.21-3.69-.3-7.39-.56-11.09-.79.23-3.82.47-7.64.7-11.45.03-.56-.44-.87-1.04-.91-4.23-.25-8.45-.46-12.68-.62-.36-.01-.81.53-.95,1.09-2.34,7.58-6.43,10.4-14.79,10.77-.12-.08-.26-.13-.49-.13-2.22,0-4.43.03-6.65.07-.7.01-.86.75-.97,1.31-.98,3.84-2.77,6.18-6.33,6.28-3.27.1-4.83-2.93-4.9-4.56-.1-2.66-.2-5.32-.31-7.98,3.81-.15,7.61-.25,11.42-.32.71-.01,1.29-.59,1.28-.98-.03-2.06-.07-4.12-.1-6.18-.02-.96-1.03-1.05-1.81-1.04-3.7.07-7.41.18-11.11.32-.15-3.82-.29-7.64-.44-11.47-.02-.56-.52-.83-1.13-.8-4.23.17-8.46.39-12.68.65-.36.02-.76.61-.84,1.18-1.73,8.52-6.1,11.57-16.16,12.49-1.21.11-2.42.23-3.63.35-.59.06-.92.43-.85,1.1.22,2.2.45,4.4.67,6.6.03.34.47.52,1.11.45,3.34-.33,6.69-.64,10.04-.91.35,4.32.7,8.63,1.06,12.95.58,6.82,9.51,7.68,11.59,7.57,4.92-.3,9.85-.54,14.77-.7,7.8-.23,12.07-4.09,14.34-7.98,2.04.02,4.08.02,6.13.06-.08,4.33-.16,8.66-.24,12.99-.1,6.84,8.69,8.58,10.78,8.69,4.93.19,9.85.45,14.77.77,14.12.99,17.91-11.03,18.19-13.81.06-.56-.09-.86-.67-.91Zm-280.97-2.8c-.1,0-.21,0-.31.01-13.86.54-27.73.8-41.6.75-.48,0-1.51-.14-2.31-.53-.6-.29-1.08-.73-1.07-1.38,0-1.21.51-2.04.85-2.49,7.94.04,15.89.02,23.82-.13.83-.02,1.67-.06,2.52-.13,4.12-.34,8.39-1.35,12.17-3.12,1.4-.66,2.74-1.42,3.97-2.3,1.57-1.12,3.04-2.55,3.61-4.39.4-1.29.31-2.66-.11-3.94-.4-1.22-1.1-2.36-1.96-3.31-5.46-5.97-14.03-6.82-21.84-6.92-1.35-.02-2.68-.01-3.97,0-2.52.01-5.03.02-7.55.02-3.38.04-27.43.95-27.46,12.79,0,2.32,1.45,4.33,3.11,5.86,1.83,1.69,3.92,2.79,4.61,3.07-1.38,1.04-4.66,3.11-6.52,5.89-.8,1.2-1.35,2.54-1.35,3.99-.01,4.82,4.45,7.12,5.19,8.04-1.76,1.17-5.09,2.59-5.1,6.04,0,2.32,2.48,4.62,5.12,5.9,1.3.63,2.65,1.03,3.75,1.05,10.69.23,21.38.18,32.06-.13,4.81-.14,9.61-.33,14.42-.58,3.4-.17,6.79-.37,10.19-.59,2.77-.14,17.5-4.11,17.45-13.61-.05-9.59-13.25-10.16-21.67-9.87Zm-12.33,17.69c-.17,0-.33.01-.5.02-2.1.08-4.21.14-6.31.19-9.1.25-18.2.34-27.31.24-1.53-.02-2.68-.24-3.32-.78-.38-.32-.59-.75-.59-1.31,0-1.51.91-2.18,1.53-2.47,10.15.13,20.29.06,30.44-.22.45-.01.9-.02,1.35-.03,3.51-.08,13-.54,13.01,1.83,0,2.02-2.61,2.3-8.31,2.52ZM453.5,21.47c-3.19,5.25-1.91,12.19,3.14,15.69,7.88,5.46,21.33,7.76,28.51,9.21,2.05.37,4.1.75,6.15,1.14,20.81,4.14,27.4-2.64,29.57-5.28.1-.15.11-.67-.4-.79-4.41-1.08-8.84-2.1-13.28-3.07-.17-.04-.42.02-.68.14-3.3,2.1-7.58,1.77-12.57.8-1.87-.36-3.74-.72-5.61-1.06-5.22-.97-10.71-3.23-10.94-7.35l36.22,6.57,8.65,1.57c.08-.33.16-.65.24-.98.53-2.04.05-4.09-1.13-6.08-4.04-6.78-16.45-12.78-26.41-14.58-3.73-.7-7.47-1.37-11.22-2-1.96-.48-14.58-1.96-23.7.94-2.72.86-5.04,2.69-6.53,5.13h0Z"/>
      <g>
        <path class="cls-1" d="m138.02,84.17c-.03-1.5,1.59-2.64,4.59-2.7,3-.06,4.36.9,4.38,2.21l-2.31.05c-.03-.4-.62-.73-1.95-.7-1.39.03-2.04.48-2.03,1.08.01.59.58,1.03,2.02,1,1.38-.03,1.98-.37,2-.75l2.31-.04c.03,1.28-1.31,2.29-4.44,2.36-3.08.06-4.54-1.11-4.57-2.5Z"/>
        <path class="cls-1" d="m151.88,83.84c-.06-1.45,1.42-2.67,4.71-2.81,3.27-.13,4.85.96,4.91,2.41.06,1.45-1.38,2.65-4.7,2.79-3.34.14-4.86-.94-4.92-2.39Zm6.95-.29c-.02-.58-.65-1.02-2.17-.96-1.53.06-2.12.56-2.1,1.14.02.56.65,1,2.18.94,1.52-.06,2.11-.56,2.09-1.12Z"/>
        <path class="cls-1" d="m166.25,78.63l2.67-.14.37,6.99-2.67.14-.37-6.99Z"/>
        <path class="cls-1" d="m174.17,78.21l2.67-.14.37,6.99-2.67.14-.37-6.99Z"/>
        <path class="cls-1" d="m191.31,82.15l-6.42.34c.17.53.72.85,2.21.77,1.39-.07,1.84-.34,1.92-.61l2.31-.12c-.01,1.03-1.17,1.95-4.23,2.12-3.73.2-4.87-1.05-4.94-2.29-.09-1.65,1.64-2.74,4.59-2.9,2.95-.16,4.45.69,4.54,2.29l.02.4Zm-2.35-.79c-.02-.39-.56-.71-2.03-.63-1.26.07-1.84.39-2.02.89l4.05-.22v-.04Z"/>
        <path class="cls-1" d="m196.25,81.65c-.13-1.49,1.42-2.74,4.4-2.99,2.99-.25,4.41.62,4.52,1.93l-2.3.19c-.05-.4-.67-.69-2-.58-1.38.12-2.01.61-1.96,1.21.05.59.65.99,2.08.87,1.38-.12,1.96-.5,1.95-.88l2.3-.19c.11,1.28-1.16,2.38-4.28,2.64-3.07.26-4.6-.82-4.72-2.2Z"/>
        <path class="cls-1" d="m210.88,80.97l-.15-1.48-1.17.12-.16-1.6.99-.1c.36-.04.51-.17.54-.54l.03-.65,2.18-.22.11,1.11,3.54-.36.16,1.6-3.54.36.13,1.25c.05.46.33.59,1.99.42.66-.07,1.24-.17,1.54-.23l.15,1.5c-.29.08-1.1.23-2.19.34-3.25.33-4.04-.52-4.15-1.54Z"/>
        <path class="cls-1" d="m221.63,74.75l2.66-.31.16,1.41-2.66.31-.16-1.41Zm.22,1.95l2.66-.31.57,4.91-2.66.31-.57-4.91Z"/>
        <path class="cls-1" d="m229.79,78.27c-.19-1.44,1.18-2.78,4.45-3.21,3.24-.42,4.92.53,5.1,1.97.19,1.44-1.15,2.76-4.44,3.19-3.31.43-4.93-.51-5.11-1.95Zm6.89-.89c-.07-.58-.74-.96-2.25-.77-1.52.2-2.06.74-1.99,1.32.07.55.74.94,2.25.75,1.51-.2,2.05-.74,1.98-1.29Z"/>
        <path class="cls-1" d="m243.87,73.91l2.65-.39.23,1.59h.02c.21-1.12,1.14-1.93,3.21-2.24,2.41-.36,3.55.39,3.8,2.04l.36,2.46-2.65.39-.27-1.82c-.13-.91-.74-1.26-2.18-1.05-1.33.2-2.2.84-2.05,1.88l.24,1.62-2.65.39-.72-4.88Z"/>
        <path class="cls-1" d="m258.76,74.98l2.28-.38c.06.25.35.49,1.87.23,1.49-.25,1.82-.51,1.78-.75-.02-.14-.13-.21-.54-.17-.42.03-1.23.15-2.14.27-1.24.16-2.12.22-2.64.1-.52-.14-.81-.46-.87-.87-.18-1.06,1.21-2.06,3.88-2.5,3.57-.6,4.19.27,4.33,1.1l-2.29.38c-.06-.29-.37-.52-1.71-.29-1.22.2-1.67.48-1.63.74.02.15.18.23.62.21.44-.03,1.2-.16,2.08-.28.83-.11,1.85-.24,2.48-.15.69.1.98.46,1.06.93.13.8-.43,1.88-4.11,2.49-3.79.63-4.33-.4-4.44-1.05Z"/>
      </g>
    </g>
  </g>
</svg>